<svg id="Layer_1" data-name="Layer 1" xmlns="http://www.w3.org/2000/svg" viewBox="0 0 512 512"><title>dislike</title><path d="M256,512,32,384V128L256,0,480,128V384ZM39.88,379.43,256,502.9,472.12,379.43V132.57L256,9.1,39.88,132.57Z" fill="#231f20"/><path d="M336.71,243.73a18.6,18.6,0,0,0,1.11-11.8,16.55,16.55,0,0,0-7.51-10.85c1.5-3,2.88-7.23,1.84-11.38a21.91,21.91,0,0,0-8.06-12.25,19.32,19.32,0,0,0,1.08-9.87c-.81-6.38-9-14.59-22.61-17.22-10.05-2-24.24-2.36-34.36-2.36-11.35,0-23.37.52-33,1.42-5.29.48-10.89,2-16.83,3.55-3.75,1-7.63,2-11.39,2.77a88.74,88.74,0,0,1-14.3,1.54l.05-7-24.74-2V265.7l22.69-1.53.06-4.41c7.77.42,16.23,2.2,19.46,3.82,13.78,6.89,26,39.72,27.42,48.89a112.34,112.34,0,0,1,1,11.27c.46,9.5,1,20.26,14.36,20.26,17,0,17.39-17.61,17.71-30.47l.09-3.41c.35-10.5-3.14-25.29-5.24-33.14,5.39.16,14.06.38,22.91.38,14.45,0,24.43-.55,29.66-1.66,7.76-1.63,25.93-5.46,25.93-17.6C344,250.84,341.46,245.92,336.71,243.73Zm-20.29,24.14c-3.22.68-10.7,1.48-28,1.48-14.2,0-27.95-.55-28.09-.56l-5.64-.23,1.65,5.4c.07.22,6.86,22.59,6.42,35.89l-.1,3.48c-.38,15.41-1.46,22.67-9.71,22.67-5.16,0-5.82-1.3-6.37-12.66a118.06,118.06,0,0,0-1-12.07c-1.07-7.15-13.24-45.61-31.75-54.86-5.16-2.58-17.21-4.76-26.3-4.76l-4.63.05-.07,5-6.79.45V177l8.68.69-.06,7.61,4.57,0a100.71,100.71,0,0,0,19.35-1.75c4-.8,8-1.86,11.89-2.89,5.6-1.49,10.89-2.89,15.52-3.32,9.38-.88,21.13-1.38,32.24-1.38,13.82,0,25.48.79,32.84,2.22,10.65,2.06,15.88,7.86,16.2,10.37.63,4.9-1.22,7.1-1.22,7.1l-3.37,3.37,3.91,2.73c4.13,2.88,6.73,5.42,7.84,9.85.75,3-2,7.48-3,8.79l-3.9,5,6.27,1.35a8.62,8.62,0,0,1,6.3,6.84,10.74,10.74,0,0,1-2.56,9.82l-7.6,7h10.3c2.61,0,5.85,0,5.85,7.66C336,260.21,333.46,264.28,316.43,267.87Z" fill="#231f20"/></svg>