<svg id="Layer_1" data-name="Layer 1" xmlns="http://www.w3.org/2000/svg" viewBox="0 0 512 512"><title>like</title><path d="M256,512,32,384V128L256,0,480,128V384ZM39.88,379.43,256,502.9,472.12,379.43V132.57L256,9.1,39.88,132.57Z" fill="#231f20"/><path d="M344,253.9c0-12.14-18.17-16-25.93-17.61-5.23-1.1-15.21-1.66-29.66-1.66-8.84,0-17.51.21-22.9.38,2.1-7.85,5.59-22.63,5.24-33.14l-.09-3.41c-.32-12.86-.76-30.47-17.71-30.47-13.37,0-13.9,10.76-14.36,20.26a112.43,112.43,0,0,1-1,11.27c-1.37,9.17-13.64,42-27.42,48.89-3.24,1.62-11.69,3.4-19.46,3.82l-.06-4.42L168,246.3v97.34l24.74-2-.05-7a88.61,88.61,0,0,1,14.3,1.54c3.76.75,7.64,1.78,11.39,2.78,5.94,1.57,11.54,3.07,16.82,3.55,9.62.9,21.64,1.41,33,1.41h0c10.12,0,24.3-.41,34.36-2.36,13.61-2.63,21.81-10.83,22.62-17.21a19.33,19.33,0,0,0-1.08-9.87,21.91,21.91,0,0,0,8.06-12.25c1-4.15-.33-8.36-1.84-11.38a16.53,16.53,0,0,0,7.51-10.84,18.6,18.6,0,0,0-1.11-11.81C341.46,266.08,344,261.16,344,253.9Zm-13.85,7.66h-10.3l7.6,7a10.79,10.79,0,0,1,2.56,9.82,8.6,8.6,0,0,1-6.25,6.82l-6.5,1.21,4.09,5.2c1.3,1.65,3.75,6,3,8.8-1.11,4.43-3.71,7-7.84,9.84L313,312.86l2.93,3.36c.08.09,1.93,2.29,1.3,7.2-.32,2.5-5.54,8.3-16.2,10.37-7.36,1.43-19,2.21-32.84,2.21h0c-11.11,0-22.87-.5-32.25-1.38-4.61-.42-9.9-1.83-15.51-3.32-3.87-1-7.88-2.09-11.9-2.89a100.8,100.8,0,0,0-19.34-1.74l-4.57,0,.06,7.61L176,335V254.86l6.79.46.07,5,4.63.05c9.1,0,21.14-2.18,26.3-4.76,18.51-9.26,30.68-47.71,31.75-54.86a118.08,118.08,0,0,0,1-12.07c.56-11.35,1.21-12.65,6.37-12.65,8.25,0,9.33,7.26,9.71,22.67l.1,3.48c.44,13.28-6.35,35.66-6.42,35.89l-1.65,5.4,5.64-.23c.14,0,13.88-.56,28.08-.56,17.32,0,24.79.81,28,1.48,17,3.59,19.57,7.67,19.57,9.78C336,261.56,332.75,261.56,330.15,261.56Z" fill="#231f20"/></svg>