<svg id="Layer_1" data-name="Layer 1" xmlns="http://www.w3.org/2000/svg" viewBox="0 0 512 512"><title>grimming</title><path d="M256,0C114.83,0,0,114.84,0,256S114.84,512,256,512,512,397.16,512,256,397.16,0,256,0Zm-85.1,91c26.92,0,48.73,33.89,48.73,75.69s-21.82,75.69-48.73,75.69-48.73-33.89-48.73-75.69S144,91,170.89,91ZM350.61,383.48H161.39a18.92,18.92,0,1,1,0-37.83H350.61a18.92,18.92,0,0,1,0,37.83ZM341.1,242.42c-26.92,0-48.75-33.89-48.75-75.69S314.18,91,341.1,91s48.74,33.89,48.74,75.69S368,242.42,341.1,242.42Z" fill="#ffe100"/></svg>